# xmcd
# Track frame offsets:
# 150
# 19510
# 35505
# 54022
# 69707
# 87587
# 104067
# 122200
# 136445
# 156057
#
# Disc length: 2330 seconds
# Revision: 0
# Processed by: cddbd v1.4PL0 Copyright (c) Steve Scherf et al.
# Submitted via: VisiTrax 2.9.5.181 - For more info visit www.synapsa.com
#
DISCID=8609180a
DTITLE=DJ Choice - Hit Country
DYEAR=2001
DGENRE=
TTITLE0=Goodbye Earl
TTITLE1=My Next Thirty Years
TTITLE2=Breathe
TTITLE3=What About Now
TTITLE4=I Hope You Dance
TTITLE5=I Will But
TTITLE6=Amazed
TTITLE7=The Way You Love Me
TTITLE8=Cowboy Take Me Away
TTITLE9=One Voice
EXTD=
EXTT0=
EXTT1=
EXTT2=
EXTT3=
EXTT4=
EXTT5=
EXTT6=
EXTT7=
EXTT8=
EXTT9=
PLAYORDER=
